<svg viewBox="0 0 100 60" fill="none" xmlns="http://www.w3.org/2000/svg">
  <defs>
    <linearGradient id="velaa-interlock-grad" x1="0%" y1="0%" x2="100%" y2="100%">
      <stop offset="0%" stopColor="#00F2FE" />
      <stop offset="100%" stopColor="#4FACFE" />
    </linearGradient>
    <filter id="3d-sheen" x="-20%" y="-20%" width="140%" height="140%">
      <feGaussianBlur in="SourceAlpha" stdDeviation="1" result="blur"/>
      <feSpecularLighting in="blur" surfaceScale="5" specularConstant="1" specularExponent="20" lightingColor="white" result="specOut">
        <fePointLight x="-50" y="-100" z="200"/>
      </feSpecularLighting>
      <feComposite in="specOut" in2="SourceAlpha" operator="in" result="specOut"/>
      <feComposite in="SourceGraphic" in2="specOut" operator="arithmetic" k1="0" k2="1" k3="1" k4="0" result="litGraphic"/>
    </filter>
  </defs>
  <g filter="url(#3d-sheen)">
    <path 
      d="M65 30 C65 38.2843 58.2843 45 50 45 C41.7157 45 35 38.2843 35 30 C35 21.7157 41.7157 15 50 15 C58.2843 15 65 21.7157 65 30" 
      stroke="url(#velaa-interlock-grad)" 
      stroke-width="3.5" 
      stroke-linecap="round" 
    />
    <path 
      d="M30 15 C38.2843 15 45 21.7157 45 30 C45 34 43.5 37.5 41 40" 
      stroke="url(#velaa-interlock-grad)" 
      stroke-width="3.5" 
      stroke-linecap="round" 
    />
    <path 
      d="M35 43 C33.5 44 31.8 45 30 45 C21.7157 45 15 38.2843 15 30 C15 21.7157 21.7157 15 30 15" 
      stroke="url(#velaa-interlock-grad)" 
      stroke-width="3.5" 
      stroke-linecap="round" 
    />
  </g>
</svg>
